<?xml version="1.0" standalone="no"?>
<!DOCTYPE svg PUBLIC "-//W3C//DTD SVG 20010904//EN"
 "http://www.w3.org/TR/2001/REC-SVG-20010904/DTD/svg10.dtd">
<svg version="1.0" xmlns="http://www.w3.org/2000/svg"
 width="1065.000000pt" height="1065.000000pt" viewBox="0 0 1065.000000 1065.000000"
 preserveAspectRatio="xMidYMid meet">

<g transform="translate(0.000000,1065.000000) scale(0.100000,-0.100000)"
fill="#000000" stroke="none">
<path d="M5070 10644 c-25 -2 -108 -8 -185 -14 -1074 -82 -2130 -517 -2985
-1228 -148 -124 -528 -504 -652 -652 -712 -856 -1126 -1861 -1230 -2985 -16
-181 -16 -699 0 -880 104 -1124 518 -2129 1230 -2985 124 -148 504 -528 652
-652 856 -712 1861 -1126 2985 -1230 181 -16 699 -16 880 0 1124 104 2129 518
2985 1230 148 124 528 504 652 652 645 775 1052 1687 1192 2672 40 281 51 436
51 753 0 317 -11 472 -51 753 -140 985 -547 1897 -1192 2672 -124 148 -504
528 -652 652 -840 699 -1830 1114 -2921 1223 -144 15 -659 28 -759 19z m-683
-4510 l22 -6 3 -582 c3 -658 -2 -616 82 -616 25 0 48 5 51 10 9 15 35 -15 35
-41 0 -34 -29 -48 -100 -49 -59 0 -69 3 -103 31 -20 17 -37 39 -37 49 0 10 -4
22 -10 25 -6 4 -10 212 -10 590 0 622 -3 585 40 594 3 0 15 -2 27 -5z m431 0
l22 -6 0 -584 c0 -383 3 -584 10 -584 6 0 10 -7 10 -16 0 -13 11 -15 67 -13
65 4 67 3 74 -22 10 -41 -18 -59 -92 -59 -33 0 -70 5 -82 12 -33 17 -64 57
-73 92 -4 17 -9 288 -11 603 -3 539 -2 572 14 576 27 7 36 7 61 1z m4109 -2
c9 -6 13 -145 17 -582 2 -316 7 -597 11 -624 5 -36 4 -51 -6 -57 -8 -5 -55 -8
-105 -8 -100 1 -124 13 -124 64 0 33 -23 32 -59 -3 -17 -15 -42 -34 -58 -41
-15 -7 -36 -17 -45 -22 -24 -12 -195 -11 -203 1 -3 6 -13 10 -21 10 -21 0
-114 63 -114 78 0 6 -4 12 -9 12 -11 0 -66 112 -77 155 -10 39 -10 311 0 350
11 43 28 82 60 139 50 89 161 146 285 146 59 0 83 -5 125 -26 28 -14 58 -32
67 -40 8 -8 19 -14 22 -14 4 0 7 103 7 228 0 126 3 232 7 235 9 10 205 8 220
-1z m493 -162 l0 -120 -104 0 c-57 0 -111 3 -120 6 -13 5 -16 24 -16 108 0 66
4 106 12 114 8 8 49 12 120 12 l108 0 0 -120z m-8203 -85 c0 -66 2 -128 2
-137 1 -16 14 -18 131 -18 l130 0 0 -28 c0 -47 -14 -52 -142 -52 -87 0 -118
-3 -119 -12 -5 -112 4 -644 11 -646 6 -2 10 -10 10 -17 0 -8 9 -17 20 -20 11
-3 20 -11 20 -16 0 -15 108 -10 140 6 36 19 60 10 60 -21 0 -13 1 -27 3 -31 1
-4 -14 -16 -33 -25 -39 -19 -210 -26 -210 -8 0 6 -7 10 -15 10 -29 0 -85 72
-85 109 0 11 -4 23 -10 26 -6 4 -10 123 -10 326 l0 319 -54 0 c-75 0 -86 6
-86 46 l0 33 68 3 67 3 3 138 3 138 47 -3 47 -3 2 -120z m5583 -3 c0 -86 4
-132 12 -140 8 -8 47 -12 110 -12 l98 0 0 -100 0 -100 -104 0 c-85 0 -105 -3
-110 -16 -3 -9 -6 -91 -6 -182 0 -182 10 -232 51 -263 29 -23 42 -23 98 -4 51
18 71 8 71 -34 0 -15 4 -31 9 -36 5 -6 11 -32 13 -60 3 -47 2 -50 -27 -58 -16
-5 -38 -13 -47 -18 -10 -5 -63 -9 -118 -9 -80 0 -109 4 -144 21 -64 30 -109
83 -132 159 -4 14 -10 131 -13 260 l-6 235 -57 3 -58 3 0 99 0 100 44 0 c78 0
76 -4 76 146 l0 134 120 0 120 0 0 -128z m-6121 -143 c88 -28 132 -50 139 -68
3 -8 0 -17 -6 -19 -7 -2 -12 -12 -12 -23 0 -25 -29 -25 -75 1 -20 11 -44 20
-55 20 -10 0 -22 5 -25 10 -9 15 -167 12 -206 -4 -44 -19 -79 -49 -79 -70 0
-9 -4 -16 -10 -16 -5 0 -10 -20 -10 -45 0 -38 6 -50 38 -85 23 -23 52 -43 71
-46 17 -4 34 -11 37 -15 3 -5 16 -9 29 -9 13 0 34 -4 47 -9 13 -5 44 -15 71
-22 26 -8 47 -17 47 -21 0 -4 9 -8 20 -8 11 0 20 -4 20 -8 0 -4 13 -15 28 -24
15 -9 34 -29 42 -45 8 -15 19 -31 24 -35 5 -3 9 -46 9 -95 0 -73 -4 -95 -23
-128 -33 -59 -50 -72 -153 -114 -36 -14 -220 -14 -266 0 -74 24 -130 49 -148
66 -15 13 -17 43 -4 43 5 0 11 9 14 20 5 19 37 29 37 11 0 -8 42 -29 120 -58
19 -7 74 -13 122 -13 86 0 126 12 175 52 61 50 51 193 -15 223 -12 5 -22 13
-22 17 0 5 -9 8 -19 8 -11 0 -23 5 -26 10 -3 6 -17 10 -31 10 -13 0 -24 5 -24
10 0 6 -10 10 -22 10 -23 0 -81 16 -110 31 -10 5 -25 9 -33 9 -8 0 -15 5 -15
10 0 6 -6 10 -13 10 -18 0 -79 59 -96 92 -18 36 -18 160 0 196 8 15 27 41 44
57 28 28 42 37 105 63 34 14 215 15 259 1z m1806 -10 c45 -21 95 -64 95 -81 0
-5 7 -16 15 -24 12 -13 21 -8 66 36 28 27 57 50 65 50 8 0 14 3 14 8 0 14 81
32 149 32 47 0 84 -6 117 -20 51 -22 114 -83 114 -111 0 -10 6 -19 12 -21 9
-3 13 -67 15 -249 2 -134 4 -294 6 -355 2 -124 -3 -137 -56 -132 l-32 3 -2
330 c-2 218 -7 338 -14 355 -27 60 -39 75 -78 97 -32 17 -57 23 -106 23 -37 0
-65 -4 -65 -10 0 -5 -7 -10 -15 -10 -31 0 -125 -94 -125 -125 0 -7 -4 -16 -9
-19 -17 -11 -23 -94 -28 -369 l-4 -278 -37 3 -37 3 -6 330 c-3 182 -9 344 -14
360 -12 44 -41 82 -77 99 -40 20 -125 20 -173 0 -43 -18 -135 -106 -135 -129
0 -8 -4 -15 -10 -15 -5 0 -10 -13 -10 -28 0 -15 -4 -32 -10 -38 -6 -6 -11
-125 -12 -294 l-3 -285 -40 0 -40 0 -3 429 c-1 278 1 432 8 436 5 3 26 4 45 2
l35 -4 0 -61 0 -61 43 46 c23 25 58 54 77 63 19 10 42 21 50 26 8 4 50 8 93 8
58 1 88 -4 122 -20z m1352 10 c63 -26 79 -35 111 -65 17 -18 32 -37 32 -43 0
-6 4 -11 8 -11 22 0 32 -93 37 -330 3 -140 8 -295 11 -343 l6 -89 -38 3 c-48
4 -63 26 -64 92 0 26 -2 47 -5 47 -2 0 -25 -20 -50 -44 -25 -24 -67 -53 -93
-66 -26 -12 -55 -26 -64 -31 -24 -12 -195 -11 -203 1 -3 6 -14 10 -24 10 -24
0 -74 47 -100 93 -30 54 -30 209 0 264 28 52 75 94 134 123 45 21 64 24 180
24 72 0 151 -3 178 -7 l47 -8 0 75 c0 58 -5 88 -22 124 -24 51 -41 72 -57 72
-6 0 -11 5 -11 10 0 6 -9 10 -19 10 -11 0 -23 5 -26 10 -14 23 -179 7 -205
-20 -3 -3 -14 -10 -25 -16 -11 -6 -24 -20 -30 -32 -5 -12 -13 -22 -17 -22 -5
0 -8 -9 -8 -20 0 -17 -7 -20 -44 -20 -25 0 -48 5 -52 11 -8 13 33 96 62 125
22 23 70 51 119 70 39 15 196 17 232 3z m2309 2 c16 -5 49 -14 74 -22 25 -7
49 -16 55 -21 5 -4 17 -8 27 -8 11 0 18 -7 18 -20 0 -11 -4 -20 -10 -20 -5 0
-10 -6 -10 -14 0 -8 -10 -34 -21 -58 -12 -23 -26 -53 -32 -65 -7 -15 -19 -23
-34 -23 -22 0 -32 3 -80 28 -13 7 -37 12 -55 13 -18 1 -44 4 -58 8 -14 4 -41
3 -60 -3 -99 -28 -76 -78 55 -117 22 -6 48 -15 57 -20 10 -5 25 -9 33 -9 8 0
23 -4 33 -8 9 -5 37 -19 62 -31 106 -50 140 -106 140 -226 0 -46 -4 -87 -10
-90 -5 -3 -10 -15 -10 -26 0 -10 -4 -19 -10 -19 -5 0 -10 -6 -10 -14 0 -29
-89 -89 -171 -115 -44 -14 -295 -15 -304 -1 -3 6 -19 10 -36 10 -16 0 -29 5
-29 10 0 6 -10 10 -22 10 -13 0 -34 9 -48 20 -14 11 -29 20 -33 20 -25 0 -52
60 -27 60 6 0 10 5 10 11 0 6 14 30 30 54 17 24 30 47 30 51 0 4 7 15 16 25
13 15 20 16 38 6 11 -7 23 -14 26 -18 21 -22 159 -69 207 -69 55 0 113 33 113
65 0 28 -61 75 -96 75 -8 0 -22 4 -32 9 -9 5 -37 14 -62 21 -25 7 -53 16 -62
21 -10 5 -25 9 -33 9 -8 0 -15 5 -15 10 0 6 -7 10 -16 10 -21 0 -76 56 -103
103 -29 53 -30 181 -1 232 37 66 85 102 174 130 47 15 249 19 292 6z m4033 -2
c89 -29 201 -100 201 -128 0 -6 5 -11 10 -11 6 0 10 -7 10 -15 0 -8 3 -15 8
-15 4 0 13 -15 20 -32 8 -18 17 -42 22 -53 17 -43 32 -165 26 -216 -15 -136
-15 -136 -57 -224 -34 -70 -123 -155 -163 -155 -9 0 -16 -4 -16 -9 0 -15 -59
-23 -194 -28 -83 -3 -133 0 -139 6 -6 6 -19 11 -28 11 -52 0 -181 103 -210
168 -7 17 -17 32 -20 32 -8 0 -14 31 -32 147 -11 67 -11 99 -1 165 16 104 24
137 35 144 5 3 9 14 9 25 0 10 3 19 8 19 4 0 18 17 31 38 27 43 91 88 170 119
44 17 79 21 165 22 60 1 126 -4 145 -10z m-2759 -305 c0 -294 2 -315 35 -349
20 -19 55 -35 78 -35 32 0 103 48 117 79 7 14 17 35 23 46 6 12 12 128 15 285
3 146 8 267 12 270 4 3 60 4 124 2 l116 -3 0 -374 c0 -253 4 -390 12 -425 10
-43 9 -53 -3 -61 -14 -9 -213 -11 -236 -2 -7 3 -13 18 -13 33 0 43 -13 44 -56
5 -21 -19 -46 -35 -55 -35 -10 0 -21 -4 -24 -10 -3 -6 -50 -10 -105 -10 -55 0
-102 4 -105 10 -3 6 -14 10 -24 10 -23 0 -103 76 -120 115 -7 17 -18 39 -24
50 -15 27 -23 655 -9 681 9 17 20 19 126 16 l116 -3 0 -295z m1988 279 c15
-15 17 -56 17 -432 l0 -416 -120 0 -120 0 -3 333 -2 332 -50 0 -50 0 0 100 0
100 156 0 c132 0 158 -3 172 -17z m-7650 -785 l-3 -63 -57 -3 c-35 -2 -58 1
-59 8 -4 31 -5 106 -1 113 2 4 30 7 63 7 l60 0 -3 -62z m956 -414 c3 -9 6 -38
6 -65 l0 -49 80 0 80 0 0 65 c0 58 2 65 20 65 19 0 20 -7 20 -150 0 -143 -1
-150 -20 -150 -18 0 -20 7 -20 70 l0 70 -80 0 -79 0 -3 -67 c-2 -55 -6 -68
-20 -71 -17 -3 -18 9 -18 147 0 122 3 151 14 151 8 0 17 -7 20 -16z m486 6 c0
-5 7 -10 14 -10 8 0 26 -15 40 -33 21 -28 26 -45 26 -96 0 -83 -31 -135 -89
-147 -14 -3 -32 -8 -40 -10 -8 -3 -34 -2 -57 2 -46 7 -114 59 -114 88 0 9 -5
25 -12 35 -23 37 22 135 77 168 24 14 155 17 155 3z m188 -17 c6 -15 12 -33
12 -40 0 -7 5 -13 10 -13 6 0 10 -9 10 -20 0 -11 5 -20 10 -20 6 0 10 -6 10
-13 0 -8 11 -36 25 -63 22 -43 26 -46 31 -26 4 12 10 22 15 22 5 0 9 7 9 15 0
8 4 23 9 33 5 9 24 47 41 85 23 47 39 67 51 67 18 0 19 -11 19 -150 0 -143 -1
-150 -20 -150 -19 0 -20 7 -20 95 0 52 -3 95 -7 95 -9 0 -33 -49 -33 -67 0 -7
-4 -13 -10 -13 -5 0 -10 -6 -10 -14 0 -23 -43 -97 -54 -93 -14 5 -64 97 -65
120 -1 9 -5 17 -11 17 -5 0 -10 9 -10 20 0 11 -4 20 -10 20 -5 0 -11 -39 -12
-87 -3 -74 -6 -88 -20 -91 -17 -3 -18 9 -18 147 0 137 2 151 18 151 9 0 23
-12 30 -27z m512 17 c0 -13 -68 -29 -115 -27 l-40 2 -3 -52 -3 -53 60 0 c34 0
61 -4 61 -9 0 -14 -27 -21 -76 -21 l-45 0 3 -52 3 -53 78 -3 c110 -4 87 -22
-29 -22 l-94 0 0 150 0 150 100 0 c57 0 100 -4 100 -10z m393 -14 c22 -19 27
-32 27 -67 0 -59 -30 -82 -114 -89 l-61 -5 -3 -57 c-3 -50 -6 -58 -22 -58 -19
0 -20 8 -20 143 0 79 3 147 7 150 3 4 40 7 82 7 65 0 80 -3 104 -24z m262 -1
c31 -30 33 -82 5 -113 -12 -12 -25 -22 -30 -22 -16 0 -11 -23 16 -79 15 -28
24 -55 21 -58 -14 -13 -37 9 -62 61 -26 54 -29 56 -66 56 l-39 0 0 -60 c0 -53
-2 -60 -20 -60 -19 0 -20 7 -20 150 l0 150 85 0 c78 0 88 -2 110 -25z m297 14
c32 -17 68 -56 68 -74 0 -8 5 -15 10 -15 14 0 12 -81 -2 -113 -7 -15 -16 -27
-20 -27 -5 0 -8 -7 -8 -15 0 -8 -4 -15 -9 -15 -5 0 -17 -7 -26 -16 -19 -20
-152 -25 -163 -8 -4 6 -17 16 -29 22 -32 17 -53 68 -53 129 0 50 3 56 45 98
43 43 47 45 105 45 34 0 71 -5 82 -11z m308 -4 c16 -8 40 -30 54 -48 46 -60
28 -183 -30 -209 -13 -6 -24 -15 -24 -20 0 -5 -39 -7 -87 -6 l-88 3 -3 134
c-1 74 0 141 2 148 8 19 139 17 176 -2z m160 -97 c1 -122 7 -140 54 -158 36
-13 106 8 106 32 0 9 5 20 10 23 6 3 10 52 10 111 0 61 4 104 10 104 17 0 22
-47 18 -150 -3 -93 -6 -102 -31 -127 -23 -24 -35 -28 -85 -28 -106 0 -132 38
-132 196 0 102 1 109 20 109 19 0 20 -7 20 -112z m495 100 c24 -11 36 -48 15
-48 -5 0 -10 4 -10 9 0 13 -75 20 -117 11 -55 -13 -83 -52 -83 -117 0 -29 5
-53 10 -53 6 0 10 -6 10 -13 0 -14 23 -29 73 -47 22 -8 42 -6 78 4 40 12 49
12 49 2 0 -28 -32 -40 -103 -39 -44 0 -73 5 -75 12 -2 6 -10 11 -18 11 -25 0
-64 76 -64 125 0 56 19 95 62 129 27 21 44 26 90 26 31 0 69 -5 83 -12z m285
-2 c0 -10 -14 -16 -42 -18 l-43 -3 -5 -129 c-4 -91 -9 -131 -17 -134 -10 -3
-13 27 -13 127 0 97 -3 131 -12 132 -7 1 -24 3 -38 4 -14 1 -31 3 -37 4 -7 0
-13 8 -13 16 0 12 19 15 110 15 89 0 110 -3 110 -14z m410 5 c0 -18 -24 -26
-85 -28 -33 -1 -63 -2 -67 -2 -4 -1 -5 -18 -3 -38 2 -21 4 -44 4 -50 1 -9 21
-13 64 -13 57 -1 60 -2 42 -15 -13 -10 -32 -13 -56 -10 -53 8 -59 -3 -51 -98
2 -16 11 -18 74 -16 48 2 73 -2 76 -9 3 -9 -24 -12 -92 -12 l-96 0 0 150 0
150 95 0 c53 0 95 -4 95 -9z m107 -15 c12 -13 27 -35 34 -47 23 -43 34 -49 52
-28 10 11 17 23 17 27 0 4 9 14 20 22 11 8 20 20 20 26 0 11 22 24 41 24 12 0
-1 -31 -23 -54 -10 -11 -18 -25 -18 -31 0 -6 -9 -17 -20 -25 -29 -21 -25 -55
10 -92 17 -17 30 -36 30 -42 0 -6 9 -18 20 -26 25 -18 26 -30 2 -30 -19 0 -41
22 -81 80 -14 19 -26 37 -27 39 -4 4 -34 -26 -34 -34 0 -4 -6 -12 -12 -19 -7
-7 -22 -25 -33 -39 -19 -26 -55 -37 -55 -17 0 6 4 10 8 10 5 0 15 12 23 27 8
15 26 41 42 57 31 34 35 62 9 85 -10 9 -33 37 -51 64 -28 41 -30 47 -13 47 10
0 28 -11 39 -24z m438 2 c20 -17 25 -31 25 -68 0 -66 -29 -90 -110 -90 -41 0
-60 -4 -62 -12 0 -7 -2 -33 -2 -57 -1 -25 -7 -46 -13 -48 -12 -4 -22 175 -15
260 l3 37 75 0 c62 0 78 -4 99 -22z m265 7 c0 -16 -33 -28 -71 -24 -13 1 -39
1 -56 1 -32 -2 -33 -3 -33 -46 0 -50 8 -56 76 -56 24 0 44 -4 44 -10 0 -5 -15
-10 -34 -10 -19 0 -46 -4 -60 -10 -22 -8 -26 -16 -26 -48 0 -53 13 -62 92 -62
39 0 68 -4 68 -10 0 -15 -187 -13 -192 3 -7 18 -1 264 7 276 3 7 43 11 96 11
72 0 89 -3 89 -15z m241 2 c46 -35 50 -89 9 -129 -35 -33 -37 -46 -10 -93 20
-36 26 -65 13 -65 -17 0 -30 17 -54 67 -23 50 -26 53 -61 53 l-38 0 0 -60 c0
-53 -2 -60 -20 -60 -19 0 -20 7 -20 150 l0 150 83 0 c49 -1 88 -6 98 -13z
m279 -2 c0 -10 -10 -15 -34 -15 -66 0 -66 1 -66 -141 0 -122 -1 -129 -20 -129
-19 0 -20 7 -20 136 l0 136 -34 -5 c-32 -4 -56 6 -56 25 0 4 52 8 115 8 96 0
115 -3 115 -15z m203 0 c8 -20 -3 -25 -60 -22 -35 1 -54 -3 -66 -15 -29 -28
-19 -51 33 -74 106 -48 110 -51 110 -102 0 -46 -19 -67 -72 -76 -48 -9 -118 3
-125 21 -9 23 4 26 51 14 32 -8 52 -8 75 0 28 10 32 15 29 42 -3 26 -12 35
-61 62 -75 39 -104 76 -88 111 21 47 33 53 102 54 50 0 68 -4 72 -15z"/>
<path d="M8491 5533 c-90 -17 -156 -194 -120 -327 20 -74 60 -136 89 -136 6 0
19 -5 29 -12 15 -9 28 -9 59 1 43 15 92 51 92 70 0 6 5 11 10 11 6 0 10 9 10
19 0 11 4 22 9 25 11 7 20 63 27 172 l6 81 -45 45 c-54 53 -92 65 -166 51z"/>
<path d="M3562 5269 c-68 -39 -84 -65 -99 -158 -8 -48 16 -111 56 -148 32 -30
40 -33 100 -33 66 0 125 15 149 38 7 6 17 12 22 12 13 0 90 77 90 89 0 6 5 11
10 11 6 0 10 9 10 20 0 11 4 20 9 20 9 0 19 36 28 106 5 40 4 40 -35 52 -22 7
-97 12 -173 11 -114 0 -139 -3 -167 -20z"/>
<path d="M9990 5533 c-58 -19 -79 -36 -99 -78 -7 -16 -17 -38 -22 -47 -12 -24
-11 -205 1 -213 6 -3 10 -17 10 -31 0 -13 5 -24 10 -24 6 0 10 -5 10 -11 0
-28 89 -79 138 -79 69 0 139 49 168 118 16 40 20 237 4 247 -5 3 -10 14 -10
25 0 30 -65 87 -107 94 -43 7 -81 7 -103 -1z"/>
<path d="M3096 4493 c-46 -7 -96 -67 -96 -114 0 -40 41 -94 88 -116 29 -14 39
-14 70 -3 19 7 47 24 61 38 21 22 26 35 26 82 0 47 -5 60 -26 82 -26 26 -73
38 -123 31z"/>
<path d="M4140 4440 l0 -51 68 3 67 3 0 45 0 45 -67 3 -68 3 0 -51z"/>
<path d="M4413 4494 c-8 -3 -13 -25 -13 -55 l0 -49 56 0 c35 0 61 5 70 14 16
17 19 72 4 81 -15 9 -102 16 -117 9z"/>
<path d="M4740 4492 c-59 -16 -80 -47 -80 -119 0 -36 6 -55 20 -71 83 -89 220
-38 220 81 0 26 -4 47 -10 47 -5 0 -10 6 -10 14 0 32 -87 62 -140 48z"/>
<path d="M5033 4493 c-9 -3 -13 -37 -13 -118 0 -94 3 -114 16 -119 25 -9 72
-7 79 4 3 6 13 10 21 10 8 0 26 11 39 25 21 20 25 34 25 82 0 80 -24 108 -100
116 -30 3 -61 3 -67 0z"/>
<path d="M6911 4486 c-7 -8 -8 -29 -3 -57 l8 -44 58 2 c32 1 60 4 62 6 10 10
14 73 6 85 -12 18 -117 25 -131 8z"/>
<path d="M7425 4492 c-3 -3 -5 -27 -5 -54 l0 -48 53 0 c40 0 58 5 70 18 20 22
22 56 5 70 -14 10 -114 22 -123 14z"/>
</g>
</svg>
