<?xml version="1.0" standalone="no"?>
<!DOCTYPE svg PUBLIC "-//W3C//DTD SVG 20010904//EN"
 "http://www.w3.org/TR/2001/REC-SVG-20010904/DTD/svg10.dtd">
<svg version="1.0" xmlns="http://www.w3.org/2000/svg"
 width="2474.000000pt" height="318.000000pt" viewBox="0 0 2474.000000 318.000000"
 preserveAspectRatio="xMidYMid meet">

<g transform="translate(0.000000,318.000000) scale(0.100000,-0.100000)"
fill="#000000" stroke="none">
<path d="M9890 1813 c0 -747 4 -1363 9 -1408 19 -159 85 -266 199 -322 51 -25
67 -28 162 -28 83 0 118 5 170 23 96 33 91 25 67 125 -17 71 -24 86 -37 81
-76 -34 -130 -46 -192 -42 -78 4 -107 24 -142 98 l-21 45 -3 1378 -2 1377
-105 0 -105 0 0 -1327z"/>
<path d="M10922 1738 l3 -1403 23 -56 c73 -182 235 -262 444 -218 66 14 148
48 148 62 0 5 -10 44 -21 87 l-21 77 -67 -23 c-134 -48 -229 -26 -275 61 -21
40 -21 43 -24 1428 l-2 1387 -105 0 -105 0 2 -1402z"/>
<path d="M20400 2570 c0 -313 -3 -570 -6 -570 -3 0 -33 24 -66 54 -67 61 -163
115 -253 142 -89 27 -311 25 -420 -4 -403 -108 -623 -453 -642 -1007 -24 -686
259 -1106 762 -1132 228 -12 417 60 582 220 34 34 64 59 66 56 2 -2 16 -44 32
-94 15 -50 34 -102 41 -117 l15 -28 260 0 261 0 -6 38 c-38 238 -46 555 -46
1835 l0 1177 -290 0 -290 0 0 -570z m-265 -869 c77 -27 146 -81 210 -163 l55
-70 0 -117 c0 -354 -60 -574 -191 -702 -73 -72 -143 -101 -247 -101 -130 0
-237 71 -297 198 -44 94 -57 160 -62 324 -4 129 -2 171 15 252 42 201 135 333
270 383 56 21 182 19 247 -4z"/>
<path d="M21580 2735 l0 -275 280 0 280 0 0 275 0 275 -280 0 -280 0 0 -275z"/>
<path d="M2220 2515 l0 -335 -170 0 -170 0 0 -95 0 -95 170 0 169 0 3 -777 3
-778 25 -70 c50 -143 156 -251 283 -291 80 -25 228 -29 320 -10 90 18 226 72
234 92 6 16 -47 176 -56 171 -146 -83 -332 -111 -431 -66 -79 35 -129 96 -158
192 -14 45 -16 153 -19 795 l-4 742 315 0 316 0 0 95 0 95 -315 0 -315 0 0
335 0 335 -100 0 -100 0 0 -335z"/>
<path d="M15270 2515 l0 -335 -140 0 -140 0 0 -250 0 -250 140 0 140 0 0 -499
c0 -405 3 -515 15 -587 42 -239 146 -394 320 -475 94 -44 169 -60 310 -66 155
-6 267 10 425 63 57 19 106 36 108 38 5 6 -109 450 -118 459 -4 5 -25 0 -46
-11 -72 -36 -138 -53 -210 -54 -76 0 -114 13 -150 54 -66 71 -74 148 -74 665
l0 413 260 0 260 0 0 250 0 250 -260 0 -260 0 0 335 0 335 -290 0 -290 0 0
-335z"/>
<path d="M668 2210 c-181 -29 -304 -84 -399 -179 -103 -104 -140 -201 -140
-367 0 -159 43 -270 143 -366 97 -94 201 -139 573 -248 314 -93 433 -189 451
-365 17 -165 -61 -313 -202 -383 -101 -50 -144 -57 -329 -56 -151 0 -181 3
-269 27 -111 30 -239 88 -307 140 l-46 36 -56 -82 -55 -81 42 -33 c87 -69 266
-143 436 -180 128 -27 415 -25 525 5 233 63 381 191 443 381 20 63 24 95 24
191 -1 231 -80 377 -262 484 -85 50 -167 80 -413 150 -318 91 -408 141 -464
254 -37 76 -39 190 -5 267 43 95 141 170 267 206 33 9 101 14 200 14 124 0
165 -4 238 -23 105 -28 211 -71 280 -113 27 -16 50 -29 52 -27 8 10 85 169 85
177 0 14 -149 85 -243 115 -42 14 -114 33 -160 42 -97 19 -328 27 -409 14z"/>
<path d="M5071 2209 c-76 -13 -183 -52 -249 -91 -69 -41 -177 -145 -225 -218
l-37 -55 0 168 0 167 -105 0 -105 0 0 -1045 0 -1045 105 0 105 0 0 649 c0 708
1 728 57 873 72 185 213 325 393 390 55 19 84 23 190 23 114 0 130 -2 181 -26
78 -37 133 -90 169 -163 58 -116 59 -146 60 -983 l0 -763 105 0 104 0 3 688 3
687 28 90 c40 127 91 219 170 301 110 117 243 174 402 174 183 0 317 -76 390
-220 54 -106 55 -121 55 -952 l0 -768 105 0 106 0 -3 808 c-4 743 -5 812 -22
872 -60 217 -184 352 -380 417 -72 23 -97 27 -221 27 -117 0 -153 -3 -219 -22
-169 -48 -326 -160 -418 -295 l-41 -60 -35 74 c-111 229 -376 347 -671 298z"/>
<path d="M8293 2206 c-97 -19 -165 -42 -248 -84 -94 -48 -209 -163 -251 -252
-31 -64 -60 -157 -53 -164 2 -3 50 -11 107 -18 94 -13 102 -13 102 3 0 9 16
48 35 86 82 164 250 253 480 253 250 0 421 -113 486 -320 17 -52 22 -102 26
-252 5 -176 5 -188 -12 -188 -10 0 -72 9 -137 20 -247 42 -536 42 -703 0 -44
-11 -122 -40 -172 -65 -159 -78 -255 -195 -304 -370 -30 -104 -32 -305 -5
-405 70 -257 273 -400 569 -400 279 0 548 137 735 375 l31 40 1 -60 c0 -54 20
-215 36 -288 l6 -27 105 0 105 0 -6 38 c-31 195 -46 547 -46 1093 0 403 -2
442 -20 515 -32 125 -73 199 -159 285 -84 84 -188 142 -311 174 -89 22 -304
29 -397 11z m452 -1091 c61 -9 137 -21 170 -28 l60 -12 -3 -94 c-10 -289 -177
-541 -446 -671 -104 -50 -188 -70 -302 -70 -126 0 -205 25 -274 86 -28 26 -60
64 -71 85 -47 93 -61 245 -34 372 41 197 187 312 440 346 92 13 322 6 460 -14z"/>
<path d="M13745 2209 c-250 -32 -465 -145 -561 -295 -58 -90 -86 -193 -87
-314 0 -189 43 -302 162 -421 115 -114 226 -167 546 -259 193 -56 273 -91 320
-140 26 -27 30 -39 30 -85 0 -46 -4 -58 -29 -84 -44 -46 -109 -63 -240 -63
-175 1 -337 53 -524 170 -46 29 -85 52 -87 52 -2 0 -61 -95 -132 -212 -70
-117 -131 -218 -136 -224 -5 -9 20 -31 76 -68 205 -137 431 -203 728 -213 249
-9 432 23 599 105 101 50 224 170 268 262 50 107 65 181 66 315 0 138 -20 211
-80 303 -102 155 -255 242 -614 349 -222 66 -323 111 -350 156 -26 42 -25 66
3 108 73 110 397 88 696 -48 41 -18 76 -31 79 -29 7 8 212 457 212 466 0 11
-148 73 -245 103 -215 67 -487 92 -700 66z"/>
<path d="M23415 2204 c-364 -55 -622 -255 -743 -577 -52 -139 -72 -250 -79
-432 -26 -727 354 -1145 1040 -1145 485 0 823 221 961 628 52 151 61 221 61
457 0 234 -10 307 -59 453 -122 356 -398 572 -796 621 -112 14 -274 12 -385
-5z m359 -504 c198 -62 298 -253 298 -570 0 -347 -128 -544 -375 -579 -243
-34 -424 90 -493 340 -26 92 -27 386 -1 479 49 181 142 288 292 336 64 20 203
17 279 -6z"/>
<path d="M16740 1458 c0 -771 4 -840 50 -980 76 -225 229 -361 463 -409 122
-25 270 -25 369 0 121 31 193 73 284 166 l82 82 5 -57 c2 -31 13 -82 23 -113
l18 -57 294 0 294 0 -6 38 c-35 217 -46 542 -46 1345 l0 707 -289 0 -289 0 -5
-582 c-4 -540 -6 -590 -25 -676 -27 -121 -69 -209 -132 -276 -67 -71 -130 -98
-227 -98 -137 0 -224 67 -258 198 -13 49 -15 165 -15 746 l0 688 -295 0 -295
0 0 -722z"/>
<path d="M21320 1931 l0 -251 125 0 125 0 0 -795 0 -795 290 0 290 0 0 978 c0
947 -1 978 -20 1020 -15 34 -29 48 -67 65 -46 21 -62 22 -395 25 l-348 3 0
-250z"/>
<path d="M3440 245 l0 -155 155 0 155 0 0 155 0 155 -155 0 -155 0 0 -155z"/>
</g>
</svg>
